<?xml version="1.0" encoding="utf-8"?>
<!-- Generator: Adobe Illustrator 21.1.0, SVG Export Plug-In . SVG Version: 6.00 Build 0)  -->
<svg version="1.1" id="Слой_1" xmlns="http://www.w3.org/2000/svg" xmlns:xlink="http://www.w3.org/1999/xlink" x="0px" y="0px"
	 viewBox="0 0 71 75" style="enable-background:new 0 0 71 75;" xml:space="preserve">
<style type="text/css">
	.st0{clip-path:url(#SVGID_2_);}
	.st1{fill:#FF699F;}
</style>
<g>
	<defs>
		<rect id="SVGID_1_" width="71" height="75"/>
	</defs>
	<clipPath id="SVGID_2_">
		<use xlink:href="#SVGID_1_"  style="overflow:visible;"/>
	</clipPath>
	<g class="st0">
		<g>
			<path class="st1" d="M63.9,72.6H50v-2.8h11.1V3.1c0-0.5-0.4-0.9-0.9-0.9H10.9c-0.5,0-0.9,0.4-0.9,0.9v66.7h11.2v2.8h-14V3.1
				c0-2.1,1.7-3.7,3.7-3.7h49.3c2.1,0,3.7,1.7,3.7,3.7V72.6z"/>
		</g>
		<g>
			<path class="st1" d="M56.6,72.6H50v-2.8h3.8V9.5c0-0.1-0.1-0.1-0.1-0.1H17.3c-0.1,0-0.1,0.1-0.1,0.1v60.3H21v2.8h-6.6V9.5
				c0-1.6,1.3-2.9,2.9-2.9h36.3c1.6,0,2.9,1.3,2.9,2.9V72.6z"/>
		</g>
		<g>
			<path class="st1" d="M49,75.6H22c-1.3,0-2.4-1.1-2.4-2.4v-4.1c0-1.3,1.1-2.4,2.4-2.4H49c1.3,0,2.4,1.1,2.4,2.4v4.1
				C51.4,74.5,50.3,75.6,49,75.6L49,75.6z M22.4,72.8h26.1v-3.2H22.4V72.8z M69.5,72.6h-8.4v-8.4c0-1.2,1-2.2,2.2-2.2h6.2
				c1.2,0,2.2,1,2.2,2.2v6.2C71.6,71.6,70.7,72.6,69.5,72.6L69.5,72.6z M63.9,69.8h5v-5h-5V69.8z M9.9,72.6H1.4c-1.1,0-2-0.9-2-2V64
				c0-1.1,0.9-2,2-2h6.6c1.1,0,2,0.9,2,2V72.6z M2.2,69.8h5l0-5h-5V69.8z M51.2,51.9h-4c-1.1,0-2.1-0.9-2.1-2.1V37.3
				c0-0.6,0.2-1.1,0.6-1.5c0.4-0.4,0.9-0.6,1.5-0.6h4c1.1,0,2.1,0.9,2.1,2.1v12.5c0,0.6-0.2,1.1-0.6,1.5
				C52.2,51.6,51.7,51.9,51.2,51.9z M50.4,49.8C50.4,49.8,50.4,49.8,50.4,49.8L50.4,49.8z M47.9,38v11h2.5V38H47.9z M47.9,37.3
				L47.9,37.3C47.9,37.3,47.9,37.3,47.9,37.3z M35.5,32.1L35.5,32.1c-1.9,0-3.4-1.5-3.4-3.4c0-1.9,1.5-3.4,3.4-3.4
				c1.9,0,3.4,1.5,3.4,3.4C38.9,30.6,37.4,32.1,35.5,32.1z M35.5,28.1c-0.3,0-0.6,0.3-0.6,0.6c0,0.4,0.3,0.6,0.6,0.6
				c0.4,0,0.6-0.3,0.6-0.6C36.1,28.3,35.9,28.1,35.5,28.1z M39.9,24.4h-8.9c-1.2,0-2.1-1-2.1-2.1v-4.5c0-1.2,1-2.1,2.1-2.1h8.9
				c1.2,0,2.1,1,2.1,2.1v4.5C42.1,23.4,41.1,24.4,39.9,24.4z M31.7,21.6h7.6v-3.2h-7.6V21.6z"/>
		</g>
	</g>
</g>
</svg>
