<svg width="66" height="63" viewBox="0 0 66 63" fill="none" xmlns="http://www.w3.org/2000/svg">
<g clip-path="url(#clip0)">
<path d="M48.35 59.17C47.66 59.17 46.96 59 46.32 58.67L33.4 51.88C33.15 51.75 32.84 51.75 32.59 51.88L19.67 58.67C18.19 59.45 16.44 59.32 15.09 58.34C13.74 57.36 13.08 55.73 13.36 54.08L15.83 39.7C15.88 39.42 15.78 39.13 15.58 38.93L5.12998 28.75C3.93998 27.59 3.50998 25.88 4.02998 24.29C4.54998 22.7 5.88998 21.57 7.53998 21.33L21.98 19.23C22.26 19.19 22.51 19.01 22.64 18.75L29.1 5.66999C29.84 4.16999 31.33 3.23999 33 3.23999C34.67 3.23999 36.16 4.16999 36.9 5.66999L43.36 18.75C43.49 19.01 43.73 19.19 44.01 19.23L58.45 21.33C60.1 21.57 61.45 22.71 61.96 24.29C62.48 25.88 62.05 27.59 60.86 28.75L50.42 38.93C50.22 39.13 50.12 39.42 50.17 39.7L52.64 54.08C52.92 55.72 52.26 57.35 50.91 58.34C50.14 58.89 49.25 59.17 48.35 59.17ZM33 48.3C33.7 48.3 34.39 48.47 35.03 48.8L47.95 55.59C48.38 55.82 48.74 55.62 48.87 55.52C49 55.42 49.3 55.15 49.22 54.67L46.75 40.29C46.51 38.88 46.98 37.44 48 36.44L58.45 26.26C58.8 25.92 58.72 25.52 58.67 25.37C58.62 25.22 58.45 24.85 57.97 24.78L43.53 22.68C42.11 22.47 40.89 21.58 40.25 20.3L33.78 7.20999C33.56 6.76999 33.16 6.71999 33 6.71999C32.84 6.71999 32.44 6.76999 32.22 7.19999L25.76 20.28C25.13 21.56 23.9 22.45 22.48 22.66L8.03998 24.76C7.55998 24.83 7.38998 25.2 7.33998 25.35C7.28998 25.5 7.20998 25.9 7.55998 26.24L18.01 36.42C19.04 37.42 19.5 38.86 19.26 40.27L16.79 54.65C16.71 55.13 17.01 55.41 17.14 55.5C17.27 55.6 17.62 55.79 18.06 55.57L30.98 48.78C31.61 48.46 32.3 48.3 33 48.3Z" fill="#FF699F"/>
<path d="M50.47 6.02999C50.12 6.02999 49.76 5.91999 49.45 5.69999C48.67 5.13999 48.5 4.04999 49.06 3.26999L50.91 0.729986C51.47 -0.0500135 52.56 -0.220014 53.34 0.339986C54.12 0.899987 54.29 1.98999 53.73 2.76999L51.88 5.30999C51.54 5.78999 51 6.02999 50.47 6.02999Z" fill="#FF699F"/>
<path d="M15.53 6.01998C14.99 6.01998 14.46 5.76998 14.12 5.29998L12.27 2.75998C11.71 1.97998 11.88 0.889977 12.66 0.329977C13.44 -0.230023 14.53 -0.0600232 15.09 0.719977L16.94 3.25998C17.5 4.03998 17.33 5.12998 16.55 5.68998C16.24 5.91998 15.88 6.01998 15.53 6.01998Z" fill="#FF699F"/>
<path d="M1.73998 40.22C1.00998 40.22 0.319984 39.75 0.0799838 39.02C-0.220016 38.11 0.279984 37.12 1.19998 36.83L4.18998 35.86C5.09998 35.56 6.08998 36.06 6.37998 36.98C6.67998 37.89 6.17998 38.88 5.25998 39.17L2.26998 40.14C2.09998 40.19 1.91998 40.22 1.73998 40.22Z" fill="#FF699F"/>
<path d="M33 62.92C32.04 62.92 31.26 62.14 31.26 61.18V58.04C31.26 57.08 32.04 56.3 33 56.3C33.96 56.3 34.74 57.08 34.74 58.04V61.18C34.74 62.14 33.96 62.92 33 62.92Z" fill="#FF699F"/>
<path d="M64.26 40.22C64.08 40.22 63.9 40.19 63.72 40.13L60.73 39.16C59.82 38.86 59.31 37.88 59.61 36.97C59.91 36.06 60.89 35.55 61.8 35.85L64.79 36.82C65.7 37.12 66.21 38.1 65.91 39.01C65.67 39.75 64.99 40.22 64.26 40.22Z" fill="#FF699F"/>
</g>
<defs>
<clipPath id="clip0">
<rect width="66" height="62.92" fill="white"/>
</clipPath>
</defs>
</svg>
